PathFileType	4	(X/Y/Z)	5_coords_data.trc
DataRate	CameraRate	NumFrames	NumMarkers	Units	OrigDataRate	OrigDataStartFrame	OrigNumFrames
30.0	30.0	6	21	m	30.0	51	70
Frame#	Time	THUMB_TIP	THUMB_IP	THUMB_MCP	THUMB_CMC	INDEX_TIP	INDEX_DIP	INDEX_PIP	INDEX_MCP	MIDDLE_TIP	MIDDLE_DIP	MIDDLE_PIP	MIDDLE_MCP	RING_TIP	RING_DIP	RING_PIP	RING_MCP	PINKY_TIP	PINKY_DIP	PINKY_PIP	PINKY_MCP	WRIST
X1	Y1	Z1	X2	Y2	Z2	X3	Y3	Z3	X4	Y4	Z4	X5	Y5	Z5	X6	Y6	Z6	X7	Y7	Z7	X8	Y8	Z8	X9	Y9	Z9	X10	Y10	Z10	X11	Y11	Z11	X12	Y12	Z12	X13	Y13	Z13	X14	Y14	Z14	X15	Y15	Z15	X16	Y16	Z16	X17	Y17	Z17	X18	Y18	Z18	X19	Y19	Z19	X20	Y20	Z20	X21	Y21	Z21
50	1.6666666666666667	-0.01879080009460449	-0.13055599975585938	1.0222100219726562	-0.024652700424194336	-0.10934300231933594	1.03527001953125	-0.039558300018310545	-0.09505940246582031	1.0570899658203126	-0.04098040008544922	-0.06290850067138672	1.066260009765625	-0.017597700119018556	-0.09329250335693359	0.9362830200195312	-0.028451499938964845	-0.09058260345458985	0.9559879760742187	-0.03960850143432617	-0.0871260986328125	0.9764920043945312	-0.050594799041748045	-0.07985179901123046	1.0112000122070313	-0.01760059928894043	-0.06507589721679688	0.9190339965820312	-0.02586630058288574	-0.0657238998413086	0.9422540283203125	-0.03774150085449219	-0.06449939727783204	0.9692990112304688	-0.05046139907836914	-0.05976269912719727	1.0045399780273438	-0.0199468994140625	-0.042418701171875	0.9227639770507813	-0.027605199813842775	-0.04136999893188477	0.9457839965820313	-0.03796609878540039	-0.04067729949951172	0.970926025390625	-0.04640200042724609	-0.04147190093994141	1.0057000122070312	-0.030582000732421875	-0.011813199996948243	0.9449390258789062	-0.034107700347900394	-0.015469200134277343	0.965052001953125	-0.03746640014648438	-0.019293300628662108	0.9828590087890625	-0.03991690063476563	-0.025130199432373046	1.0083400268554688	-0.055766998291015626	-0.0318518009185791	1.079699951171875
51	1.7	-0.01983449935913086	-0.1314429931640625	1.0239099731445314	-0.02499959945678711	-0.10969100189208984	1.036469970703125	-0.03986529922485352	-0.09477110290527344	1.05797998046875	-0.04089120101928711	-0.062475898742675784	1.0668599853515626	-0.019864599227905275	-0.0934552993774414	0.9355490112304687	-0.02970719909667969	-0.09074150085449219	0.95581298828125	-0.03993719863891602	-0.08722779846191406	0.9767620239257813	-0.049686901092529295	-0.07983999633789063	1.0116400146484374	-0.02027989959716797	-0.06481050109863282	0.918135009765625	-0.027298999786376954	-0.06561479949951173	0.9418140258789063	-0.0378734016418457	-0.06452159881591797	0.9694140014648438	-0.04937260055541992	-0.059856601715087894	1.004760009765625	-0.02254010009765625	-0.04253720092773437	0.9219639892578125	-0.028863800048828124	-0.04158409881591797	0.945427978515625	-0.037861000061035155	-0.04082210159301758	0.9711300048828125	-0.04545589828491211	-0.04146799850463867	1.0060399780273437	-0.03105340003967285	-0.011979100227355956	0.9450079956054688	-0.03419960021972656	-0.015588199615478516	0.9652269897460938	-0.03723040008544922	-0.019387699127197264	0.983156982421875	-0.0393296012878418	-0.025135400772094727	1.0086900024414063	-0.055633399963378904	-0.03143350028991699	1.0800999755859375
52	1.7333333333333334	-0.02030940055847168	-0.13213400268554687	1.02543994140625	-0.024984100341796874	-0.11007700347900391	1.0375400390625	-0.039743000030517575	-0.09468620300292968	1.0586700439453125	-0.04062049865722656	-0.06240629959106445	1.06743994140625	-0.02151259994506836	-0.09384970092773437	0.9352319946289063	-0.030509199142456055	-0.09107720184326172	0.955968017578125	-0.0400161018371582	-0.08757720184326172	0.977219970703125	-0.049006900787353515	-0.08008550262451172	1.0121400146484374	-0.021860300064086916	-0.06495690155029298	0.9178629760742187	-0.028050399780273436	-0.06580970001220703	0.9418259887695313	-0.03775820159912109	-0.06478610229492188	0.9696849975585937	-0.04849020004272461	-0.06019160079956055	1.0050900268554688	-0.02411009979248047	-0.04301900100708008	0.9217069702148437	-0.029615999221801758	-0.042042198181152346	0.9453720092773438	-0.03773419952392578	-0.041278499603271485	0.9713380126953125	-0.04478730010986328	-0.041749801635742184	1.0063900146484375	-0.03162529945373535	-0.012497599601745606	0.9450339965820312	-0.03448569869995117	-0.016032400131225585	0.9653930053710937	-0.03726010131835938	-0.019742900848388673	0.9833619995117188	-0.03894449996948242	-0.025342500686645508	1.0089199829101563	-0.05566690063476563	-0.03118239974975586	1.0805699462890626
53	1.7666666666666666	-0.020502500534057617	-0.13275900268554688	1.0266300048828125	-0.024890399932861327	-0.11053700256347657	1.0383399658203125	-0.039736801147460935	-0.09496939849853515	1.0591700439453124	-0.040667701721191406	-0.06246670150756836	1.0678900146484376	-0.022410400390625	-0.09428379821777344	0.935125	-0.030865800857543944	-0.09149089813232422	0.9560809936523438	-0.03997560119628906	-0.08795980072021484	0.9774920043945312	-0.04860329818725586	-0.08035649871826171	1.0124600219726563	-0.022004499435424804	-0.06502089691162109	0.9179609985351562	-0.02786199951171875	-0.06603109741210937	0.9420969848632812	-0.03723379898071289	-0.06517040252685546	0.970031982421875	-0.04790539932250976	-0.06048609924316406	1.0054299926757813	-0.02404330062866211	-0.04327579879760742	0.9217880249023438	-0.029188800811767578	-0.0423583984375	0.9456599731445312	-0.0370619010925293	-0.04165840148925781	0.9717050170898438	-0.04430400085449219	-0.04205680084228516	1.006780029296875	-0.03114539909362793	-0.01288029956817627	0.9452620239257813	-0.03400680160522461	-0.016376800537109375	0.9656589965820312	-0.036757198333740235	-0.02007229995727539	0.9836799926757812	-0.03853020095825195	-0.025620899200439452	1.0092100219726563	-0.05547660064697266	-0.031410400390625	1.080719970703125
54	1.8	-0.020309499740600586	-0.13318800354003907	1.0273399658203124	-0.024702400207519532	-0.1108769989013672	1.03893994140625	-0.03962129974365235	-0.09528669738769531	1.0596800537109374	-0.0405531005859375	-0.06269070053100587	1.0680699462890626	-0.022733400344848633	-0.09472450256347656	0.9352579956054687	-0.03100589942932129	-0.09197200012207031	0.9563189697265625	-0.039847198486328124	-0.08841860198974609	0.9778189697265625	-0.048255901336669925	-0.08070590209960937	1.0128300170898437	-0.02194179916381836	-0.06537449645996093	0.9182030029296875	-0.02767679977416992	-0.06641259765625	0.942280029296875	-0.03690439987182617	-0.06551950073242188	0.970198974609375	-0.04758919906616211	-0.060918701171875	1.0056500244140625	-0.024090599060058594	-0.043844600677490235	0.9220390014648437	-0.029033599853515626	-0.04289400100708008	0.9458419799804687	-0.03674390029907226	-0.04213690185546875	0.971801025390625	-0.04405459976196289	-0.04254000091552734	1.0068699951171876	-0.03099690055847168	-0.013333200454711914	0.945510009765625	-0.03381729888916016	-0.016831199645996095	0.9659089965820312	-0.03651729965209961	-0.020539199829101563	0.983947021484375	-0.038226600646972655	-0.0260664005279541	1.0094099731445312	-0.05546910095214844	-0.03162459945678711	1.081
55	1.8333333333333333	-0.02042210006713867	-0.13363400268554687	1.0281400146484374	-0.024742599487304687	-0.11129000091552735	1.039550048828125	-0.03959640121459961	-0.09561009979248047	1.0601500244140625	-0.0406072998046875	-0.06298429870605468	1.0685899658203124	-0.02333340072631836	-0.09538870239257813	0.9354310302734375	-0.03130249977111817	-0.09257119750976563	0.9566300048828125	-0.03996250152587891	-0.08894439697265626	0.9781630249023437	-0.04826330184936523	-0.08115309906005859	1.0131599731445313	-0.022163200378417968	-0.06622019958496093	0.9184559936523438	-0.027756900787353517	-0.06716259765625	0.942625	-0.036849300384521486	-0.0661281967163086	0.9705650024414062	-0.04746720123291016	-0.061373798370361325	1.005969970703125	-0.024308000564575195	-0.04460390090942383	0.9222000122070313	-0.029123300552368163	-0.04358319854736328	0.9460679931640625	-0.03669219970703125	-0.04275439834594726	0.9721170043945313	-0.04382410049438477	-0.04294850158691406	1.007239990234375	-0.031018199920654296	-0.01398859977722168	0.9456929931640625	-0.03376279830932617	-0.017415000915527345	0.9660880126953125	-0.0365176010131836	-0.02106329917907715	0.9841530151367187	-0.038128799438476565	-0.026513599395751954	1.009530029296875	-0.055488601684570316	-0.03181319999694824	1.0812900390625
